<?xml version="1.0" encoding="UTF-8"?>
<svg version="1.1" xmlns="http://www.w3.org/2000/svg" width="1563" height="1563">
<path d="M0 0 C5.64231266 4.8125608 6.68609002 13.32948403 7.28857422 20.37426758 C7.40192407 23.92161424 7.4162938 27.45110617 7.375 31 C7.36484863 32.27311035 7.35469727 33.5462207 7.34423828 34.85791016 C6.9782872 57.33411482 1.96602086 79.01157532 -6 100 C-4.515 99.01 -4.515 99.01 -3 98 C-1.09887695 97.49755859 -1.09887695 97.49755859 1.01171875 97.1484375 C2.14770508 96.95507812 2.14770508 96.95507812 3.30664062 96.7578125 C4.09232422 96.63148438 4.87800781 96.50515625 5.6875 96.375 C6.48478516 96.2409375 7.28207031 96.106875 8.10351562 95.96875 C10.0679402 95.6393854 12.03383927 95.31883687 14 95 C14.17015625 94.46221924 14.3403125 93.92443848 14.515625 93.37036133 C19.67736302 77.28626212 25.62307179 61.26469072 40.20703125 51.3984375 C44.83390584 49.08176463 48.97643846 49.02056347 54 50 C58.00648958 51.78861142 59.5291196 53.26228738 61.875 56.9375 C64.89302322 65.21043424 63.08057218 75.45190226 62 84 C62.67546875 83.71125 63.3509375 83.4225 64.046875 83.125 C64.93890625 82.75375 65.8309375 82.3825 66.75 82 C67.63171875 81.62875 68.5134375 81.2575 69.421875 80.875 C72 80 72 80 76 80 C78.8125 82.125 78.8125 82.125 81 85 C80.87695017 88.13777068 80.39649044 90.20701911 79 93 C80.14057861 92.94465088 81.28115723 92.88930176 82.45629883 92.83227539 C113.55165831 91.35638496 144.62462868 90.71112712 175.75 90.375 C176.69798588 90.36475422 177.64597176 90.35450844 178.62268448 90.34395218 C190.41501802 90.21758224 202.20744102 90.10316851 214 90 C214.27807495 88.30170044 214.27807495 88.30170044 214.56176758 86.5690918 C214.81819158 85.04991162 215.07496489 83.53079037 215.33203125 82.01171875 C215.45259888 81.26950073 215.5731665 80.52728271 215.6973877 79.76257324 C219.55765287 57.19628543 232.74318721 35.76884906 251 22 C272.67051032 7.48097967 298.39481423 -0.03125122 324.4453125 4.6953125 C336.81751591 7.71849978 349.94097508 13.19758324 357.40625 24.04296875 C360.4935793 29.74350177 361.73137768 35.1444459 360 41.5 C357.9244549 47.09536351 354.0941858 51.18862443 348.96484375 54.19140625 C347 55 347 55 344 55 C344 54.34 344 53.68 344 53 C345.93530766 51.17270951 347.99047623 49.53104622 350.0546875 47.8515625 C353.20243336 44.85551523 354.31391972 42.06085982 354.5 37.75 C354.33402148 32.13439345 352.01423903 28.79033726 348 25 C341.89137843 20.3608063 335.43424229 17.69416016 328 16 C327.10925781 15.7834375 326.21851563 15.566875 325.30078125 15.34375 C304.23516226 10.9754361 281.7279644 17.33496477 263.875 28.6875 C253.4642816 35.98888384 244.97361144 44.30398786 238 55 C237.46890625 55.76441406 236.9378125 56.52882813 236.390625 57.31640625 C233.02990156 62.43544634 230.8026222 67.76195938 228.75 73.5 C228.50362793 74.18787598 228.25725586 74.87575195 228.00341797 75.58447266 C226.16721788 80.96871382 225.00940076 86.40635795 224 92 C224.5762915 91.98952637 225.15258301 91.97905273 225.74633789 91.96826172 C240.62058114 91.73656198 255.2070875 92.44481054 270 94 C270 94.66 270 95.32 270 96 C254.49 95.67 238.98 95.34 223 95 C224.26437197 117.75869548 226.72783838 136.16680787 241 154 C241.66 154.33 242.32 154.66 243 155 C243 155.66 243 156.32 243 157 C243.81404297 157.4021875 243.81404297 157.4021875 244.64453125 157.8125 C246.33982687 158.6671764 248.02348924 159.54507097 249.69921875 160.4375 C255.72317512 163.58728111 261.20432856 166.26502722 268 167 C268.84691406 167.09410156 269.69382812 167.18820312 270.56640625 167.28515625 C301.40152117 168.88644717 333.18609267 153.75693992 356 134 C356.54414551 133.52884766 357.08829102 133.05769531 357.64892578 132.57226562 C363.34601207 127.58752763 368.76383545 122.4911332 373.5 116.55859375 C375.18147197 114.81143928 376.78790105 113.95825838 379 113 C362.97385523 141.43855101 331.1886433 160.4148818 301 170 C300.28875977 170.2259082 299.57751953 170.45181641 298.84472656 170.68457031 C281.48049244 175.97428319 262.53797165 176.59493725 246.1875 168.125 C231.30159184 159.4503265 221.54435771 144.19883375 217.14575195 127.66113281 C215.05993158 119.25526691 213.83469647 111.20590455 213.9375 102.5625 C213.94201172 101.83095703 213.94652344 101.09941406 213.95117188 100.34570312 C213.96281852 98.56376581 213.98074809 96.78187137 214 95 C202.45169113 95.46179107 190.90371451 95.93116445 179.3560648 96.4091692 C173.98889252 96.63112231 168.62165222 96.85084966 163.25415039 97.06469727 C140.99109491 97.95335604 118.7508728 98.95530119 96.52734375 100.57421875 C95.63905947 100.63799021 94.75077518 100.70176167 93.8355732 100.76746559 C91.3637891 100.94695041 88.89264609 101.13325025 86.42163086 101.32299805 C85.69262259 101.37651365 84.96361431 101.43002926 84.21251488 101.48516655 C80.4828022 101.74905152 80.4828022 101.74905152 77 103 C74.48386379 111.20074023 74.76329479 120.26098361 74.6875 128.75 C74.66993652 129.81476563 74.65237305 130.87953125 74.63427734 131.9765625 C74.6402061 139.58434171 75.93190147 145.64610836 79.1875 152.5 C82.1270156 154.93270257 85.32425505 155.08210427 89 155 C92.0592315 154.5216991 95.01951185 153.83481265 98 153 C98 153.66 98 154.32 98 155 C91.93340019 158.59502211 87.07620106 160.16353642 80 159 C75.09999294 156.64073734 72.5219139 153.78294016 70 149 C66.55347307 139.09123508 65.82745208 129.28799511 65.875 118.875 C65.87113281 118.02035156 65.86726562 117.16570312 65.86328125 116.28515625 C65.87075948 111.41682856 66.18053532 106.79972168 67 102 C65.515 102.495 65.515 102.495 64 103 C62.27204648 103.06802967 60.54164635 103.08495645 58.8125 103.0625 C57.46091797 103.04896484 57.46091797 103.04896484 56.08203125 103.03515625 C55.39496094 103.02355469 54.70789063 103.01195312 54 103 C53.62681641 104.04800781 53.62681641 104.04800781 53.24609375 105.1171875 C48.3310462 116.48804986 38.31117292 128.15570735 28 135 C27.34 135 26.68 135 26 135 C27.71846998 129.95578518 30.56039757 125.67234677 33.375 121.1875 C36.89401358 115.57495561 40.12617757 109.97237504 43 104 C42.0821875 104.13277344 41.164375 104.26554688 40.21875 104.40234375 C38.37796875 104.66724609 38.37796875 104.66724609 36.5 104.9375 C34.69015625 105.19853516 34.69015625 105.19853516 32.84375 105.46484375 C28.89943512 106.01400141 24.95259844 106.51466988 21 107 C19.68139067 121.71853114 18.47110186 137.58887732 28.25 149.8125 C35.26399238 155.39181212 41.93457969 157.05423853 50.75 157.5625 C51.79607422 157.62727539 51.79607422 157.62727539 52.86328125 157.69335938 C54.57531922 157.79889596 56.28763561 157.8998991 58 158 C57.67 158.66 57.34 159.32 57 160 C53.85449187 160.11792821 50.70956459 160.18781383 47.5625 160.25 C46.68400391 160.28351563 45.80550781 160.31703125 44.90039062 160.3515625 C36.20009845 160.4799801 28.98501379 157.7702327 22.5625 151.80859375 C12.28765275 139.91545806 12.45436951 122.83751475 12 108 C10.95199219 108.10699219 9.90398438 108.21398437 8.82421875 108.32421875 C7.44538686 108.44615626 6.06647604 108.56720365 4.6875 108.6875 C3.99720703 108.76033203 3.30691406 108.83316406 2.59570312 108.90820312 C-2.51372066 109.32781764 -2.51372066 109.32781764 -4.91796875 107.70703125 C-6 106 -6 106 -7 103 C-7.86256525 104.42015207 -8.68828335 105.86268388 -9.5 107.3125 C-10.19609375 108.51326172 -10.19609375 108.51326172 -10.90625 109.73828125 C-13.93300259 118.76448986 -11.5644693 129.22771927 -10.3125 138.4375 C-10.22551849 139.09008789 -10.13853699 139.74267578 -10.04891968 140.41503906 C-8.59764765 151.20429376 -6.41326869 161.63379499 -3.48681641 172.11328125 C-2.81506984 174.71672031 -2.38293035 177.34052768 -2 180 C-2.66 180 -3.32 180 -4 180 C-11.02349325 161.3189561 -14.59101995 141.77520936 -17 122 C-17.37769531 122.64324219 -17.75539063 123.28648437 -18.14453125 123.94921875 C-21.64850644 129.7016464 -25.42229982 134.97071699 -29.75 140.125 C-30.22155518 140.69307373 -30.69311035 141.26114746 -31.17895508 141.84643555 C-33.40897947 144.45297307 -34.68568327 145.89522776 -38 147 C-38 147.66 -38 148.32 -38 149 C-39.83729048 150.64196391 -41.66537543 152.14035986 -43.625 153.625 C-44.21039551 154.0686792 -44.79579102 154.5123584 -45.39892578 154.96948242 C-63.76929413 168.6067564 -82.83490301 174.41495415 -105.75 174.3125 C-106.41330322 174.31001251 -107.07660645 174.30752502 -107.76000977 174.30496216 C-124.35235205 174.20860564 -141.21359257 172.54857531 -154 160.6875 C-162.39157326 151.15450367 -167.48305575 138.72975213 -168 126 C-168.0515625 124.89785156 -168.103125 123.79570313 -168.15625 122.66015625 C-168.8855236 92.24337001 -158.86376994 61.64161151 -147 34 C-147.5418544 34.10529526 -148.0837088 34.21059052 -148.64198303 34.31907654 C-191.23109254 42.58286619 -233.9197565 50.36004954 -276.9375 56.0625 C-277.71954803 56.16704498 -278.50159607 56.27158997 -279.30734253 56.37930298 C-281.48400948 56.66744742 -283.66154697 56.94713205 -285.83984375 57.22265625 C-287.03988037 57.37484619 -288.23991699 57.52703613 -289.47631836 57.68383789 C-293.35142102 58.03153123 -297.11130519 58.05318193 -301 58 C-300.690625 58.70125 -300.38125 59.4025 -300.0625 60.125 C-295.62253787 72.13901519 -298.01282561 85.68490454 -302.94384766 97.20507812 C-307.54748551 106.97624028 -313.09969576 117.49230156 -321.0546875 124.91796875 C-324.5289124 128.18987935 -325.88139006 129.95281318 -326.43359375 134.828125 C-326.50758754 138.57185831 -326.30601088 142.26958165 -326 146 C-323.93428372 143.96150399 -321.87240736 141.9193525 -319.8125 139.875 C-319.23435547 139.30523438 -318.65621094 138.73546875 -318.06054688 138.1484375 C-315.30798473 135.41142655 -312.65931314 132.66187205 -310.1953125 129.66015625 C-307.03186908 125.82687339 -307.03186908 125.82687339 -304 125 C-300.9375 124.9375 -300.9375 124.9375 -298 126 C-294.68119956 131.21525783 -294.36575179 136.92969165 -293.52734375 142.96484375 C-292.67504217 147.87031286 -290.90974591 151.87052527 -287 155 C-283.81950049 156.0131065 -283.81950049 156.0131065 -280.3125 156.6875 C-278.54326172 157.06455078 -278.54326172 157.06455078 -276.73828125 157.44921875 C-275.83464844 157.63097656 -274.93101562 157.81273437 -274 158 C-274 158.66 -274 159.32 -274 160 C-276.37625177 160.10883596 -278.74743976 160.18766696 -281.125 160.25 C-281.79015625 160.28351563 -282.4553125 160.31703125 -283.140625 160.3515625 C-288.29656488 160.45265936 -291.02258797 159.1923965 -295 156 C-300.03729762 151.08263803 -301.88518885 145.63979812 -304 139 C-305.75085334 141.06178074 -307.50070381 143.12439877 -309.25 145.1875 C-309.74113281 145.76564453 -310.23226562 146.34378906 -310.73828125 146.93945312 C-312.904773 149.49591339 -315.04211207 152.0539097 -317.10546875 154.6953125 C-318.95336698 156.94327118 -320.85629897 158.79586328 -323.0625 160.6875 C-323.73410156 161.26886719 -324.40570313 161.85023438 -325.09765625 162.44921875 C-329.46966457 166.01325839 -329.46966457 166.01325839 -332.5 165.9375 C-335.86782237 164.67456661 -336.43026051 163.18596074 -338 160 C-338.38818359 157.41748047 -338.38818359 157.41748047 -338.3984375 154.6171875 C-338.40456055 153.55016602 -338.41068359 152.48314453 -338.41699219 151.38378906 C-338.39620605 149.64693848 -338.39620605 149.64693848 -338.375 147.875 C-338.36194824 146.04533691 -338.36194824 146.04533691 -338.34863281 144.17871094 C-337.93692066 117.29593238 -336.26683565 88.68574727 -328 63 C-341.90870636 62.58418543 -341.90870636 62.58418543 -354 66 C-353.59622971 68.33523864 -353.13819728 70.62586139 -352.625 72.9375 C-350.11874479 84.44987788 -349.76069569 95.81847261 -349.75 107.5625 C-349.74899292 108.33256378 -349.74798584 109.10262756 -349.74694824 109.89602661 C-349.76523788 130.6964535 -352.53223077 150.70226671 -357 171 C-357.99 171.33 -358.98 171.66 -360 172 C-359.90912109 171.12190674 -359.81824219 170.24381348 -359.72460938 169.33911133 C-356.31285267 135.68300625 -353.09911956 99.70264131 -364 67 C-373.76341466 67.3469841 -383.49678951 67.83335457 -393.2265625 68.734375 C-414.26471971 70.63882083 -435.19029963 71.3045553 -456.3125 71.3125 C-457.60770569 71.31581329 -458.90291138 71.31912659 -460.23736572 71.32254028 C-463.96699798 71.32819402 -467.69618986 71.31781431 -471.42578125 71.30078125 C-472.53265793 71.30156677 -473.63953461 71.30235229 -474.779953 71.30316162 C-493.76042196 71.1335675 -493.76042196 71.1335675 -500.7578125 64.4375 C-503.76520022 60.95725257 -503.33437916 57.27708928 -503.265625 52.87109375 C-502.45970789 44.16007796 -496.11670936 37.77539518 -490 32 C-469.05893677 14.86640281 -441.700568 6.69528169 -414.83349609 9.20214844 C-400.94699155 10.9367342 -388.5934166 15.71069719 -378 25 C-376.53046875 26.15822266 -376.53046875 26.15822266 -375.03125 27.33984375 C-371.9759147 29.88803561 -369.76565314 32.71644472 -367.5 36 C-366.7884375 37.010625 -366.076875 38.02125 -365.34375 39.0625 C-361.95328456 44.37663378 -359.55360618 50.25330589 -357 56 C-352.22911033 55.66934428 -347.46083218 55.31472269 -342.69335938 54.93798828 C-341.07210687 54.81325163 -339.45033972 54.69502336 -337.828125 54.58349609 C-335.49312442 54.4218202 -333.16098984 54.23664336 -330.828125 54.046875 C-330.10506165 54.0018988 -329.38199829 53.95692261 -328.63702393 53.9105835 C-324.00986664 53.50417825 -321.9706893 52.53615799 -319 49 C-316.78125 48.5390625 -316.78125 48.5390625 -314.5 48.625 C-313.7471875 48.63789062 -312.994375 48.65078125 -312.21875 48.6640625 C-310 49 -310 49 -308.12252808 50.02816772 C-305.70796138 51.13371439 -304.43961096 51.14587037 -301.82080078 50.88525391 C-300.99216522 50.80745697 -300.16352966 50.72966003 -299.30978394 50.64950562 C-297.95374557 50.50202377 -297.95374557 50.50202377 -296.5703125 50.3515625 C-295.60626495 50.25477203 -294.64221741 50.15798157 -293.6489563 50.05825806 C-280.69852323 48.71934429 -267.78470341 47.055228 -254.875 45.375 C-253.5239822 45.20002014 -252.17295878 45.02508369 -250.82192993 44.85018921 C-231.74610716 42.37606423 -212.70234583 39.72261238 -193.6875 36.8125 C-192.65840515 36.6565033 -191.6293103 36.50050659 -190.56903076 36.33978271 C-183.70068404 35.29345302 -176.84746367 34.17495486 -170 33 C-168.87708557 32.8111322 -167.75417114 32.6222644 -166.597229 32.42767334 C-163.12890156 31.83461647 -159.66791773 31.20912661 -156.20703125 30.57421875 C-154.5931678 30.30155937 -154.5931678 30.30155937 -152.94670105 30.02339172 C-147.11315286 29.06525925 -147.11315286 29.06525925 -142.79956055 25.33911133 C-142.40377808 24.18125122 -142.40377808 24.18125122 -142 23 C-141.67 24.32 -141.34 25.64 -141 27 C-117.0429705 22.6737084 -93.29005502 17.5337503 -70.0390625 10.26171875 C-69.35618164 10.04950684 -68.67330078 9.83729492 -67.96972656 9.61865234 C-66.04624143 9.01452352 -64.12848786 8.3922409 -62.2109375 7.76953125 C-59.05094678 7.01220987 -57.97145018 7.09485676 -55 8 C-63.25700324 11.61599476 -71.54980706 14.61802581 -80.1875 17.1875 C-81.44038818 17.56189209 -82.69327637 17.93628418 -83.98413086 18.32202148 C-95.59022624 21.73889726 -107.31318624 24.68366112 -119.0625 27.5625 C-119.96970795 27.78618256 -120.87691589 28.00986511 -121.81161499 28.24032593 C-124.40524822 28.87719714 -127.00089414 29.50492894 -129.59765625 30.12890625 C-130.37350067 30.31907318 -131.14934509 30.50924011 -131.94869995 30.70516968 C-135.69743783 31.59227877 -139.14183225 32.22846611 -143 32 C-143.35771484 33.93552734 -143.35771484 33.93552734 -143.72265625 35.91015625 C-145.14516689 43.02771389 -147.01782338 50.02741982 -148.8269043 57.05392456 C-160.63814011 102.70255608 -160.63814011 102.70255608 -149.8125 147.3125 C-144.1667075 155.70396666 -133.86177021 159.47628338 -124.34375 161.58984375 C-97.56067326 164.87515106 -72.17880266 159.32454958 -50 144 C-48.65984668 142.67352172 -47.3241908 141.34241361 -46 140 C-45.34 140 -44.68 140 -44 140 C-44 139.34 -44 138.68 -44 138 C-43.28328125 137.42765625 -42.5665625 136.8553125 -41.828125 136.265625 C-36.81892497 132.25272995 -33.18578081 127.09021362 -29.43408203 121.93115234 C-28.51434832 120.69262772 -27.56660329 119.47414932 -26.58544922 118.28369141 C-18.03224504 107.85956904 -18.57939657 97.89214454 -19.82006836 84.984375 C-20.02266872 82.94609078 -20.23023411 80.90848654 -20.44395447 78.87133789 C-22.70122355 56.86225361 -25.17793733 20.6068549 -11 2 C-7.10682197 -0.56784083 -4.43563313 -1.867635 0 0 Z M-5 6 C-18.85680548 21.50918605 -15.27207301 53.04726036 -15.125 72.25 C-15.11493714 74.56770441 -15.10581721 76.88541311 -15.09765625 79.203125 C-15.07593468 84.80217928 -15.04272588 90.40106858 -15 96 C-0.95865956 74.93798933 3.46979776 37.82065849 -0.8125 13.0625 C-1.48928143 9.78271306 -2.47453922 8.20718353 -5 6 Z M-482 40 C-482 40.66 -482 41.32 -482 42 C-482.59296875 42.25265625 -483.1859375 42.5053125 -483.796875 42.765625 C-487.58700191 44.88917128 -489.88252148 48.26327321 -492 52 C-492.50691259 55.33874912 -492.50691259 55.33874912 -492 58 C-486.58136928 60.14367747 -481.32291138 60.66131361 -475.5703125 61.13671875 C-474.55792511 61.22153 -473.54553772 61.30634125 -472.50247192 61.39372253 C-461.60760578 62.22368574 -450.78856158 62.11242091 -439.875 61.8125 C-438.84414276 61.78799774 -437.81328552 61.76349548 -436.75119019 61.73825073 C-420.66840384 61.35301494 -404.61607928 60.5972921 -388.5625 59.5625 C-387.0879837 59.47060898 -387.0879837 59.47060898 -385.5836792 59.37686157 C-382.82700027 59.20141224 -380.07172391 59.01195955 -377.31640625 58.81640625 C-376.49798752 58.76425964 -375.67956879 58.71211304 -374.83634949 58.65838623 C-370.45438027 58.46095407 -370.45438027 58.46095407 -367 56 C-375.31040483 38.85775317 -387.20835948 28.50451469 -405.05078125 22.28515625 C-429.77849369 15.03098793 -462.58468703 23.42481675 -482 40 Z M-314.0625 60 C-314.98160156 60.185625 -315.90070313 60.37125 -316.84765625 60.5625 C-317.91306641 60.7790625 -317.91306641 60.7790625 -319 61 C-326.18774978 82.38081913 -326.58956829 104.66435181 -327 127 C-323.13934625 123.41026932 -320.29246701 119.68508415 -317.625 115.125 C-317.24142334 114.47587646 -316.85784668 113.82675293 -316.46264648 113.15795898 C-308.17354223 98.87416353 -302.47952699 85.84896255 -304 69 C-304.9966976 65.45955679 -306.2865154 62.25103105 -308 59 C-310.03782149 59 -312.07494919 59.59745806 -314.0625 60 Z M35.07421875 70.41015625 C29.94381237 77.51802119 26.1273426 84.49062962 24 93 C30.08278612 92.64649139 36.07395889 91.94618818 42.0625 90.8125 C43.14660156 90.61269531 44.23070312 90.41289063 45.34765625 90.20703125 C48.2195341 89.23464901 48.2195341 89.23464901 49.296875 86.421875 C50.11640967 82.43347295 50.73180626 78.48222355 51.1875 74.4375 C51.32961914 73.3247168 51.32961914 73.3247168 51.47460938 72.18945312 C51.93782054 68.2185666 52.09233159 64.91225145 51 61 C43.51914577 59.69085051 39.38284897 65.01781377 35.07421875 70.41015625 Z " fill="#000000" transform="translate(650,660)"/>
<path d="M0 0 C5.2910098 3.97225358 6.18633176 8.13563783 7.3125 14.3125 C7.48072266 15.14845703 7.64894531 15.98441406 7.82226562 16.84570312 C8.23188515 18.89380075 8.61830345 20.94651521 9 23 C9.94359375 22.11248047 9.94359375 22.11248047 10.90625 21.20703125 C24.29327198 8.84822933 24.29327198 8.84822933 31.25 8.4375 C35.60241761 9.09036264 36.27070644 9.69470169 39 13 C40.54052966 15.89150869 41.92282987 18.79553781 43.26757812 21.77929688 C45.26469852 26.01575136 47.33999585 29.05930302 51 32 C54.31399598 33.22574355 54.31399598 33.22574355 57.8125 33.8125 C58.97394531 34.04582031 60.13539063 34.27914062 61.33203125 34.51953125 C62.65267578 34.75736328 62.65267578 34.75736328 64 35 C64 35.33 64 35.66 64 36 C56.50870386 36.44947777 50.16798816 36.70205375 44 32 C39.69312355 27.95353934 36.67067335 23.23862849 34 18 C34 17.34 34 16.68 34 16 C26.97953771 17.65187348 23.27773395 20.45874895 18.5625 25.9375 C15.55663527 29.41181118 12.85032033 32.46042702 9 35 C5.8125 35.0625 5.8125 35.0625 3 34 C-0.43899286 30.53482192 -1.14218095 26.3542847 -2.1875 21.75 C-2.36474609 21.00492188 -2.54199219 20.25984375 -2.72460938 19.4921875 C-3.15834193 17.66347729 -3.58034597 15.83199221 -4 14 C-4.66 14 -5.32 14 -6 14 C-7.66781902 15.80519184 -7.66781902 15.80519184 -9.4375 18.1875 C-13.27277103 23.11353619 -17.25460242 27.88265992 -21.31811523 32.61987305 C-23.36467256 35.01724781 -25.2486963 37.37304445 -27 40 C-29.5625 40.25 -29.5625 40.25 -32 40 C-34.04698414 37.95301586 -33.70045693 33.69588759 -34 31 C-34.71285156 31.32226562 -35.42570312 31.64453125 -36.16015625 31.9765625 C-40.75445573 33.63227978 -45.18101753 33.57234249 -50 33 C-53.86184826 31.17070346 -55.47015759 30.05968482 -57.375 26.25 C-57.58125 25.5075 -57.7875 24.765 -58 24 C-63.1431339 26.79518147 -67.84573122 29.95741996 -72.5703125 33.4140625 C-77.51606745 36.64232055 -82.15011628 37.98088959 -88 37 C-91.44312714 34.8755173 -92.71617547 33.85147359 -94 30 C-94.45714611 23.0285219 -93.18787426 19.32232758 -89.3125 13.4375 C-83.98129104 7.81811758 -77.27840278 4.37057032 -69.52734375 3.69921875 C-68.34269531 3.69535156 -67.15804688 3.69148437 -65.9375 3.6875 C-64.15666016 3.66236328 -64.15666016 3.66236328 -62.33984375 3.63671875 C-58.71799445 4.03067429 -56.88412846 4.81881324 -54 7 C-52.1875 9.6875 -52.1875 9.6875 -51 12 C-51.66 12.66 -52.32 13.32 -53 14 C-53.99 13.34 -54.98 12.68 -56 12 C-63.86186732 10.66180982 -70.68792848 15.14426962 -77.0703125 19.37109375 C-80.06250586 21.69112773 -81.29575024 23.33171003 -82 27 C-75.55456652 24.37950811 -69.76232174 21.12967222 -63.89453125 17.390625 C-60.66730866 15.84016448 -58.53488424 15.72768299 -55 16 C-54.69707031 16.68707031 -54.39414063 17.37414062 -54.08203125 18.08203125 C-53.66308594 18.98308594 -53.24414062 19.88414062 -52.8125 20.8125 C-52.40644531 21.70582031 -52.00039062 22.59914063 -51.58203125 23.51953125 C-49.67772358 26.50529759 -48.23792401 27.58573434 -45 29 C-41.87646211 29.36012333 -41.87646211 29.36012333 -38.6875 29.1875 C-37.61886719 29.16042969 -36.55023437 29.13335938 -35.44921875 29.10546875 C-34.23685547 29.05326172 -34.23685547 29.05326172 -33 29 C-32.90912109 27.95199219 -32.90912109 27.95199219 -32.81640625 26.8828125 C-32.73261719 25.97273437 -32.64882812 25.06265625 -32.5625 24.125 C-32.48128906 23.22007812 -32.40007812 22.31515625 -32.31640625 21.3828125 C-32 19 -32 19 -31 17 C-30.34 17 -29.68 17 -29 17 C-28.01 19.475 -28.01 19.475 -27 22 C-26.05640625 20.60587891 -26.05640625 20.60587891 -25.09375 19.18359375 C-11.11409665 -1.13024712 -11.11409665 -1.13024712 0 0 Z " fill="#000000" transform="translate(1120,783)"/>
<path d="M0 0 C2 1.9375 2 1.9375 3.1875 5.125 C2.92137365 10.53623584 0.94329039 13.30937966 -3 16.9375 C-6.54260718 19.22320956 -10.18617491 21.14595227 -14 22.9375 C-8.82536715 24.09476613 -4.32373433 23.79503156 0.875 23.1875 C1.63941406 23.11273437 2.40382813 23.03796875 3.19140625 22.9609375 C8.53923396 22.36169025 13.02870421 20.99849279 18 18.9375 C18.495 19.9275 18.495 19.9275 19 20.9375 C13.32664094 28.74078908 6.43362922 32.89048825 -3 34.9375 C-6.24638268 35.22696302 -9.49215398 35.26026049 -12.75 35.3125 C-14.05324219 35.36857422 -14.05324219 35.36857422 -15.3828125 35.42578125 C-21.7841159 35.51228535 -26.0934706 34.1328396 -31 29.9375 C-33.76551633 26.04849267 -34.56231906 22.56868588 -34.33984375 17.87890625 C-33.2043613 11.3922996 -27.11523259 6.57362919 -22 2.9375 C-14.89215513 -0.96551949 -7.80283781 -2.76350506 0 0 Z M-20 12.5625 C-22.10002601 14.96657733 -22.10002601 14.96657733 -24 17.9375 C-23.69159401 20.09024948 -23.69159401 20.09024948 -23 21.9375 C-21.27944664 22.78137198 -21.27944664 22.78137198 -19 22.9375 C-12.67465725 19.45903283 -7.22882839 14.77036675 -3 8.9375 C-3.66 7.6175 -4.32 6.2975 -5 4.9375 C-10.36737291 4.9375 -16.12596869 9.1727226 -20 12.5625 Z " fill="#000000" transform="translate(411,785.0625)"/>
<path d="M0 0 C3.49924284 2.37948513 4.70611946 3.771045 5.6875 7.875 C4.67869956 12.46045655 2.55897623 14.99269873 -1 18 C-4.56390995 20.22438824 -8.22250049 22.16502248 -12 24 C-6.84642047 25.15071951 -2.36440196 24.86699249 2.8125 24.25 C3.60769043 24.15928223 4.40288086 24.06856445 5.22216797 23.97509766 C10.79240829 23.28466631 15.78207414 22.12582164 21 20 C20.20642898 24.16624788 18.85339176 26.49941998 15.625 29.125 C7.37417646 34.71379313 -0.94180442 36.35739756 -10.75 36.5 C-11.54188721 36.51853027 -12.33377441 36.53706055 -13.1496582 36.55615234 C-18.86079658 36.49523672 -23.25398223 35.23741616 -28 32 C-30.63220972 29.106393 -31.86753016 25.81381777 -32.15234375 21.9140625 C-31.67391141 15.51042957 -28.45572574 11.19643937 -23.875 6.875 C-17.16567958 1.43887685 -8.65408821 -1.76145158 0 0 Z M-17.24609375 12.97265625 C-19.88860394 15.79295501 -19.88860394 15.79295501 -22 19 C-21.76701286 21.20320847 -21.76701286 21.20320847 -21 23 C-19.24760837 23.79220513 -19.24760837 23.79220513 -17 24 C-11.12887776 21.05475056 -4.08210222 15.98290431 -1 10 C-1.27992569 7.83007286 -1.27992569 7.83007286 -2 6 C-7.7605168 6 -12.99120281 9.23575204 -17.24609375 12.97265625 Z " fill="#000000" transform="translate(1217,784)"/>
<path d="M0 0 C2.171875 1.66015625 2.171875 1.66015625 4.171875 4.66015625 C4.171875 5.98015625 4.171875 7.30015625 4.171875 8.66015625 C3.65625 8.33015625 3.140625 8.00015625 2.609375 7.66015625 C-2.28576333 5.65189437 -6.49935583 6.31290694 -11.265625 8.28515625 C-18.57190122 11.82608193 -23.47603405 15.76214013 -27.828125 22.66015625 C-25.68094442 21.60031036 -23.53522124 20.53771188 -21.390625 19.47265625 C-20.75261963 19.15675537 -20.11461426 18.84085449 -19.45727539 18.51538086 C-15.12341863 16.35365026 -10.91902921 14.04881211 -6.79296875 11.5078125 C-4.36926383 10.46219825 -2.4402089 10.51076497 0.171875 10.66015625 C0.54699219 11.43101562 0.92210937 12.201875 1.30859375 12.99609375 C1.82035156 13.99898437 2.33210937 15.001875 2.859375 16.03515625 C3.35824219 17.03289063 3.85710938 18.030625 4.37109375 19.05859375 C6.49321903 22.12439729 7.58107813 22.79341218 11.171875 23.66015625 C14.52693026 23.90065557 14.52693026 23.90065557 17.984375 23.78515625 C19.14582031 23.76710938 20.30726563 23.7490625 21.50390625 23.73046875 C22.82455078 23.69566406 22.82455078 23.69566406 24.171875 23.66015625 C18.48165568 28.17308882 13.23374686 28.22095196 6.171875 27.66015625 C1.56393989 25.85705121 -0.8549945 22.4827526 -3.828125 18.66015625 C-4.51777344 19.17964844 -5.20742188 19.69914063 -5.91796875 20.234375 C-22.684084 32.67671841 -22.684084 32.67671841 -30.8125 32.13671875 C-34.41180028 31.2857214 -35.81473586 29.68023996 -37.828125 26.66015625 C-39.17193843 21.53686756 -39.21262531 17.56845697 -37.09375 12.67578125 C-29.75761755 0.99231106 -13.0653673 -6.18980799 0 0 Z " fill="#000000" transform="translate(790.828125,788.33984375)"/>
<path d="M0 0 C1.78083984 -0.02513672 1.78083984 -0.02513672 3.59765625 -0.05078125 C7.21950555 0.34317429 9.05337154 1.13131324 11.9375 3.3125 C13.75 6 13.75 6 14.9375 8.3125 C14.2775 8.9725 13.6175 9.6325 12.9375 10.3125 C11.9475 9.6525 10.9575 8.9925 9.9375 8.3125 C2.07563268 6.97430982 -4.75042848 11.45676962 -11.1328125 15.68359375 C-14.12500586 18.00362773 -15.35825024 19.64421003 -16.0625 23.3125 C-9.61706652 20.69200811 -3.82482174 17.44217222 2.04296875 13.703125 C5.27019134 12.15266448 7.40261576 12.04018299 10.9375 12.3125 C11.24042969 12.99957031 11.54335937 13.68664062 11.85546875 14.39453125 C12.27441406 15.29558594 12.69335938 16.19664062 13.125 17.125 C13.53105469 18.01832031 13.93710938 18.91164063 14.35546875 19.83203125 C16.27680797 22.84450139 17.65351551 23.91034932 20.9375 25.3125 C24.51978216 25.67368491 24.51978216 25.67368491 28.25 25.5 C29.50425781 25.47292969 30.75851562 25.44585938 32.05078125 25.41796875 C33.00339844 25.38316406 33.95601562 25.34835937 34.9375 25.3125 C28.75918499 29.43137667 23.25415856 30.18148731 15.9375 29.3125 C12.07565174 27.48320346 10.46734241 26.37218482 8.5625 22.5625 C8.35625 21.82 8.15 21.0775 7.9375 20.3125 C2.7943661 23.10768147 -1.90823122 26.26991996 -6.6328125 29.7265625 C-11.57856745 32.95482055 -16.21261628 34.29338959 -22.0625 33.3125 C-25.50562714 31.1880173 -26.77867547 30.16397359 -28.0625 26.3125 C-28.51964611 19.3410219 -27.25037426 15.63482758 -23.375 9.75 C-16.97872712 3.00798264 -9.2413449 0.03016761 0 0 Z " fill="#000000" transform="translate(1313.0625,786.6875)"/>
<path d="M0 0 C0.99 0.33 1.98 0.66 3 1 C3 1.99 3 2.98 3 4 C3.6290625 3.855625 4.258125 3.71125 4.90625 3.5625 C10.37929262 2.3755751 15.3994943 1.49995485 21 2 C22.9756562 4.96348429 23.26376859 5.68020373 23.4140625 9.01171875 C23.45273438 9.76904297 23.49140625 10.52636719 23.53125 11.30664062 C23.5621875 12.09232422 23.593125 12.87800781 23.625 13.6875 C23.66367188 14.48478516 23.70234375 15.28207031 23.7421875 16.10351562 C23.83632494 18.06863475 23.91924632 20.0342854 24 22 C27.34939881 24.02558881 29.86962551 24.21738987 33.75 24.125 C34.73484375 24.10695313 35.7196875 24.08890625 36.734375 24.0703125 C37.48203125 24.04710937 38.2296875 24.02390625 39 24 C39 24.66 39 25.32 39 26 C33.13102536 29.13011981 27.62831521 30.11494808 21 29 C17.58688333 26.47429367 16.33362232 25.00086696 15 21 C14.96045766 18.66700175 14.95598268 16.33291811 15 14 C14.01 14.33 13.02 14.66 12 15 C5.09991699 15.84519089 0.0691862 14.21394258 -6 11 C-5.55530671 5.96014269 -3.28656638 3.62365012 0 0 Z " fill="#000000" transform="translate(1245,791)"/>
<path d="M0 0 C3.78830148 3.32911343 4.93845304 5.69607737 5.5 10.75 C5.33931098 15.00022461 3.79244473 17.53656633 1.0625 20.8125 C-3.42011615 23.80091077 -7.68665516 23.51761345 -12.9375 22.8125 C-16.4287147 21.3967712 -18.29208967 19.22115491 -19.87890625 15.7578125 C-21.1804033 11.45915367 -21.19488342 8.48337652 -19.3125 4.375 C-15.49656456 -2.72608287 -6.82203468 -2.75784381 0 0 Z M-16.9375 5.8125 C-18.38897903 8.71545805 -18.30989025 10.58511779 -17.9375 13.8125 C-15.92684744 17.14264331 -14.67481173 19.18202397 -11 20.515625 C-7.48164481 21.12867174 -5.39783404 21.00263797 -2.0625 19.625 C1.15689515 16.87904531 1.92871381 15.07009021 2.375 10.875 C2.01578773 7.35471975 1.22629476 5.59452183 -0.9375 2.8125 C-7.21883124 -1.73605021 -12.08475382 1.07260838 -16.9375 5.8125 Z " fill="#000000" transform="translate(746.9375,883.1875)"/>
<path d="M0 0 C3.89010137 1.40705794 4.76845049 2.60636584 6.875 6.1875 C8.15623281 10.52945563 8.50401413 13.70410335 7 18 C4.18538135 21.39197633 2.03518099 23.77059151 -2.42578125 24.2734375 C-10.25299519 24.54881986 -10.25299519 24.54881986 -14.0625 21.75 C-17.49623821 16.87630706 -18.41490005 14.09642473 -17.6171875 8.19140625 C-16.6644595 4.80861884 -14.71321026 3.11762752 -12 1 C-8.30514298 -0.84742851 -4.04130195 -0.33783754 0 0 Z M-13 5 C-15.32880181 8.21596441 -15.3242679 11.10878524 -15 15 C-14.11208934 17.82517029 -13.13907443 18.88137769 -10.875 20.8125 C-6.9633187 22.42819445 -3.98680034 22.4468227 0 21 C3.22533959 18.61200819 4.8001268 15.95939138 5.625 12 C4.75004681 7.80022471 2.99012644 6.06131993 0 3 C-4.76364281 0.6181786 -8.97101123 1.86634207 -13 5 Z " fill="#000000" transform="translate(660,882)"/>
<path d="M0 0 C13.30096929 -0.36947137 13.30096929 -0.36947137 16.39453125 1.265625 C18.72435856 3.78251874 18.84016513 5.73629918 19.109375 9.05859375 C19 11 19 11 17.6875 13.5 C16 15 16 15 14 15 C15.65 17.97 17.3 20.94 19 24 C17.68 23.67 16.36 23.34 15 23 C14.4225 22.01 13.845 21.02 13.25 20 C11.38571014 16.89864204 11.38571014 16.89864204 8.96875 16.3828125 C6.98840313 16.15270177 4.99256448 16.06641882 3 16 C3 18.64 3 21.28 3 24 C2.01 24 1.02 24 0 24 C0 16.08 0 8.16 0 0 Z M3 2 C3 5.96 3 9.92 3 14 C9.06755731 14.48145231 9.06755731 14.48145231 14.5625 12.5 C15.036875 12.005 15.51125 11.51 16 11 C15.73606499 7.56769552 15.73606499 7.56769552 15 4 C10.7975546 1.19836974 7.99895065 1.85510288 3 2 Z " fill="#000000" transform="translate(820,882)"/>
<path d="M0 0 C1.32 0 2.64 0 4 0 C5.67275302 3.62222211 7.33716251 7.2482166 9 10.875 C9.47695313 11.90753906 9.95390625 12.94007813 10.4453125 14.00390625 C10.89648438 14.99003906 11.34765625 15.97617187 11.8125 16.9921875 C12.44091797 18.35899658 12.44091797 18.35899658 13.08203125 19.75341797 C14 22 14 22 14 24 C12.68 23.67 11.36 23.34 10 23 C9.505 20.525 9.505 20.525 9 18 C4.38 18 -0.24 18 -5 18 C-5.66 19.98 -6.32 21.96 -7 24 C-7.99 24 -8.98 24 -10 24 C-7.49415892 15.59806226 -3.78974143 7.88058561 0 0 Z M1 4 C0.32880451 5.4562545 -0.33681807 6.91507867 -1 8.375 C-1.37125 9.18710937 -1.7425 9.99921875 -2.125 10.8359375 C-3.12495013 12.91998433 -3.12495013 12.91998433 -3 15 C0.3 15 3.6 15 7 15 C6.38348417 13.3509698 5.75652258 11.70584159 5.125 10.0625 C4.77695312 9.14597656 4.42890625 8.22945312 4.0703125 7.28515625 C3.2180914 4.85058944 3.2180914 4.85058944 1 4 Z " fill="#000000" transform="translate(869,882)"/>
<path d="M0 0 C0.99 0 1.98 0 3 0 C3 3.63 3 7.26 3 11 C7.95 11 12.9 11 18 11 C18 7.37 18 3.74 18 0 C18.99 0 19.98 0 21 0 C21 7.92 21 15.84 21 24 C20.01 24 19.02 24 18 24 C18 20.37 18 16.74 18 13 C13.05 13 8.1 13 3 13 C3 16.63 3 20.26 3 24 C2.01 24 1.02 24 0 24 C0 16.08 0 8.16 0 0 Z " fill="#000000" transform="translate(947,882)"/>
<path d="M0 0 C0.99 0 1.98 0 3 0 C3 3.63 3 7.26 3 11 C7.95 11 12.9 11 18 11 C18 7.37 18 3.74 18 0 C18.99 0 19.98 0 21 0 C21 7.92 21 15.84 21 24 C20.01 24 19.02 24 18 24 C18 20.37 18 16.74 18 13 C13.05 13 8.1 13 3 13 C3 16.63 3 20.26 3 24 C2.01 24 1.02 24 0 24 C0 16.08 0 8.16 0 0 Z " fill="#000000" transform="translate(598,882)"/>
<path d="M0 0 C2.625 2 2.625 2 4 4 C0 4 0 4 -2 3 C-6.6478538 2.58685744 -9.24440152 3.21012684 -13 6 C-14.6026571 9.20531421 -14.48207377 12.52218208 -14 16 C-11.80626646 19.42222431 -10.41368588 19.90565059 -6.4375 20.8125 C-3.01806042 21.21014678 -3.01806042 21.21014678 0 20 C0.33 17.36 0.66 14.72 1 12 C1.99 12 2.98 12 4 12 C4 15.3 4 18.6 4 22 C-1.13814834 24.56907417 -5.33789986 24.81822256 -11 24 C-14.6717213 22.14990787 -16.68195684 19.95412948 -18 16 C-18.34231315 10.69414624 -18.53140599 7.26204172 -15 3 C-10.67539818 -0.80040766 -5.48894263 -0.87934157 0 0 Z " fill="#000000" transform="translate(791,882)"/>
<path d="M0 0 C13.31894294 -0.36997064 13.31894294 -0.36997064 16.39453125 1.30078125 C18.94613599 4.00138481 18.93740908 6.36972664 19 10 C17.65437601 12.94755732 16.91445456 14.54277272 14 16 C12.12620395 16.07033769 10.24998898 16.0843022 8.375 16.0625 C7.37210938 16.05347656 6.36921875 16.04445313 5.3359375 16.03515625 C4.56507813 16.02355469 3.79421875 16.01195312 3 16 C3 18.64 3 21.28 3 24 C2.01 24 1.02 24 0 24 C0 16.08 0 8.16 0 0 Z M3 2 C3 5.96 3 9.92 3 14 C9.06755731 14.48145231 9.06755731 14.48145231 14.5625 12.5 C15.036875 12.005 15.51125 11.51 16 11 C15.73606499 7.56769552 15.73606499 7.56769552 15 4 C10.7975546 1.19836974 7.99895065 1.85510288 3 2 Z " fill="#000000" transform="translate(556,882)"/>
<path d="M0 0 C13.36518973 -0.49500703 13.36518973 -0.49500703 16.39453125 1.8671875 C18.31341419 4.41636046 18.92386313 5.80225159 19 9 C16.72289157 14.63855422 16.72289157 14.63855422 14 16 C11.95944995 16.07065617 9.91665743 16.08421976 7.875 16.0625 C6.77929688 16.05347656 5.68359375 16.04445313 4.5546875 16.03515625 C3.71164062 16.02355469 2.86859375 16.01195312 2 16 C2 18.64 2 21.28 2 24 C1.34 24 0.68 24 0 24 C0 16.08 0 8.16 0 0 Z M2 2 C2 5.96 2 9.92 2 14 C8.66939214 14.583394 8.66939214 14.583394 14.6875 12.375 C16.26101354 9.99621956 16.26101354 9.99621956 15.9375 6.875 C15.23305313 3.70825068 15.23305313 3.70825068 12 2 C9.48415109 1.75849227 9.48415109 1.75849227 6.8125 1.875 C5.224375 1.91625 3.63625 1.9575 2 2 Z " fill="#000000" transform="translate(905,882)"/>
<path d="M0 0 C1.32 0 2.64 0 4 0 C5.703125 2.1171875 5.703125 2.1171875 7.25 4.875 C8.03117188 6.23238281 8.03117188 6.23238281 8.828125 7.6171875 C10 10 10 10 10 12 C12.50719458 9.67350413 14.32183601 7.17318479 16.1875 4.3125 C16.71730469 3.50425781 17.24710938 2.69601562 17.79296875 1.86328125 C18.19128906 1.24839844 18.58960938 0.63351562 19 0 C19.99 0.33 20.98 0.66 22 1 C21.36191406 1.99 20.72382812 2.98 20.06640625 4 C19.23102019 5.33286315 18.39642678 6.66622334 17.5625 8 C17.14162109 8.64839844 16.72074219 9.29679688 16.28710938 9.96484375 C13.345875 14.7178785 12.34274177 18.41642493 12 24 C11.34 24 10.68 24 10 24 C9.9484375 23.42894531 9.896875 22.85789062 9.84375 22.26953125 C8.80815423 14.86737513 5.71183929 9.70558223 1.6796875 3.58984375 C0 1 0 1 0 0 Z " fill="#000000" transform="translate(989,882)"/>
<path d="M0 0 C6.6 0 13.2 0 20 0 C20 0.66 20 1.32 20 2 C17.03 2 14.06 2 11 2 C11 9.26 11 16.52 11 24 C10.34 24 9.68 24 9 24 C9 16.74 9 9.48 9 2 C6.03 2 3.06 2 0 2 C0 1.34 0 0.68 0 0 Z " fill="#000000" transform="translate(687,882)"/>
</svg>
